%TF.GenerationSoftware,KiCad,Pcbnew,9.0.6*%
%TF.CreationDate,2025-12-04T00:12:17+02:00*%
%TF.ProjectId,Prototype,50726f74-6f74-4797-9065-2e6b69636164,rev?*%
%TF.SameCoordinates,Original*%
%TF.FileFunction,Legend,Top*%
%TF.FilePolarity,Positive*%
%FSLAX46Y46*%
G04 Gerber Fmt 4.6, Leading zero omitted, Abs format (unit mm)*
G04 Created by KiCad (PCBNEW 9.0.6) date 2025-12-04 00:12:17*
%MOMM*%
%LPD*%
G01*
G04 APERTURE LIST*
%ADD10C,0.150000*%
%ADD11C,0.101600*%
%ADD12C,0.120000*%
%ADD13C,0.127000*%
%ADD14C,0.100000*%
%ADD15C,0.504000*%
G04 APERTURE END LIST*
D10*
X155829167Y-73495700D02*
X155972024Y-73543319D01*
X155972024Y-73543319D02*
X156210119Y-73543319D01*
X156210119Y-73543319D02*
X156305357Y-73495700D01*
X156305357Y-73495700D02*
X156352976Y-73448080D01*
X156352976Y-73448080D02*
X156400595Y-73352842D01*
X156400595Y-73352842D02*
X156400595Y-73257604D01*
X156400595Y-73257604D02*
X156352976Y-73162366D01*
X156352976Y-73162366D02*
X156305357Y-73114747D01*
X156305357Y-73114747D02*
X156210119Y-73067128D01*
X156210119Y-73067128D02*
X156019643Y-73019509D01*
X156019643Y-73019509D02*
X155924405Y-72971890D01*
X155924405Y-72971890D02*
X155876786Y-72924271D01*
X155876786Y-72924271D02*
X155829167Y-72829033D01*
X155829167Y-72829033D02*
X155829167Y-72733795D01*
X155829167Y-72733795D02*
X155876786Y-72638557D01*
X155876786Y-72638557D02*
X155924405Y-72590938D01*
X155924405Y-72590938D02*
X156019643Y-72543319D01*
X156019643Y-72543319D02*
X156257738Y-72543319D01*
X156257738Y-72543319D02*
X156400595Y-72590938D01*
X156733929Y-72543319D02*
X156972024Y-73543319D01*
X156972024Y-73543319D02*
X157162500Y-72829033D01*
X157162500Y-72829033D02*
X157352976Y-73543319D01*
X157352976Y-73543319D02*
X157591072Y-72543319D01*
X158400595Y-72543319D02*
X158210119Y-72543319D01*
X158210119Y-72543319D02*
X158114881Y-72590938D01*
X158114881Y-72590938D02*
X158067262Y-72638557D01*
X158067262Y-72638557D02*
X157972024Y-72781414D01*
X157972024Y-72781414D02*
X157924405Y-72971890D01*
X157924405Y-72971890D02*
X157924405Y-73352842D01*
X157924405Y-73352842D02*
X157972024Y-73448080D01*
X157972024Y-73448080D02*
X158019643Y-73495700D01*
X158019643Y-73495700D02*
X158114881Y-73543319D01*
X158114881Y-73543319D02*
X158305357Y-73543319D01*
X158305357Y-73543319D02*
X158400595Y-73495700D01*
X158400595Y-73495700D02*
X158448214Y-73448080D01*
X158448214Y-73448080D02*
X158495833Y-73352842D01*
X158495833Y-73352842D02*
X158495833Y-73114747D01*
X158495833Y-73114747D02*
X158448214Y-73019509D01*
X158448214Y-73019509D02*
X158400595Y-72971890D01*
X158400595Y-72971890D02*
X158305357Y-72924271D01*
X158305357Y-72924271D02*
X158114881Y-72924271D01*
X158114881Y-72924271D02*
X158019643Y-72971890D01*
X158019643Y-72971890D02*
X157972024Y-73019509D01*
X157972024Y-73019509D02*
X157924405Y-73114747D01*
X154043155Y-42948569D02*
X154043155Y-41948569D01*
X154043155Y-41948569D02*
X154281250Y-41948569D01*
X154281250Y-41948569D02*
X154424107Y-41996188D01*
X154424107Y-41996188D02*
X154519345Y-42091426D01*
X154519345Y-42091426D02*
X154566964Y-42186664D01*
X154566964Y-42186664D02*
X154614583Y-42377140D01*
X154614583Y-42377140D02*
X154614583Y-42519997D01*
X154614583Y-42519997D02*
X154566964Y-42710473D01*
X154566964Y-42710473D02*
X154519345Y-42805711D01*
X154519345Y-42805711D02*
X154424107Y-42900950D01*
X154424107Y-42900950D02*
X154281250Y-42948569D01*
X154281250Y-42948569D02*
X154043155Y-42948569D01*
X154995536Y-42043807D02*
X155043155Y-41996188D01*
X155043155Y-41996188D02*
X155138393Y-41948569D01*
X155138393Y-41948569D02*
X155376488Y-41948569D01*
X155376488Y-41948569D02*
X155471726Y-41996188D01*
X155471726Y-41996188D02*
X155519345Y-42043807D01*
X155519345Y-42043807D02*
X155566964Y-42139045D01*
X155566964Y-42139045D02*
X155566964Y-42234283D01*
X155566964Y-42234283D02*
X155519345Y-42377140D01*
X155519345Y-42377140D02*
X154947917Y-42948569D01*
X154947917Y-42948569D02*
X155566964Y-42948569D01*
X151809821Y-44731045D02*
X151352678Y-44731045D01*
X151581250Y-44731045D02*
X151581250Y-43931045D01*
X151581250Y-43931045D02*
X151505059Y-44045330D01*
X151505059Y-44045330D02*
X151428869Y-44121521D01*
X151428869Y-44121521D02*
X151352678Y-44159616D01*
X136779167Y-73495700D02*
X136922024Y-73543319D01*
X136922024Y-73543319D02*
X137160119Y-73543319D01*
X137160119Y-73543319D02*
X137255357Y-73495700D01*
X137255357Y-73495700D02*
X137302976Y-73448080D01*
X137302976Y-73448080D02*
X137350595Y-73352842D01*
X137350595Y-73352842D02*
X137350595Y-73257604D01*
X137350595Y-73257604D02*
X137302976Y-73162366D01*
X137302976Y-73162366D02*
X137255357Y-73114747D01*
X137255357Y-73114747D02*
X137160119Y-73067128D01*
X137160119Y-73067128D02*
X136969643Y-73019509D01*
X136969643Y-73019509D02*
X136874405Y-72971890D01*
X136874405Y-72971890D02*
X136826786Y-72924271D01*
X136826786Y-72924271D02*
X136779167Y-72829033D01*
X136779167Y-72829033D02*
X136779167Y-72733795D01*
X136779167Y-72733795D02*
X136826786Y-72638557D01*
X136826786Y-72638557D02*
X136874405Y-72590938D01*
X136874405Y-72590938D02*
X136969643Y-72543319D01*
X136969643Y-72543319D02*
X137207738Y-72543319D01*
X137207738Y-72543319D02*
X137350595Y-72590938D01*
X137683929Y-72543319D02*
X137922024Y-73543319D01*
X137922024Y-73543319D02*
X138112500Y-72829033D01*
X138112500Y-72829033D02*
X138302976Y-73543319D01*
X138302976Y-73543319D02*
X138541072Y-72543319D01*
X138874405Y-72638557D02*
X138922024Y-72590938D01*
X138922024Y-72590938D02*
X139017262Y-72543319D01*
X139017262Y-72543319D02*
X139255357Y-72543319D01*
X139255357Y-72543319D02*
X139350595Y-72590938D01*
X139350595Y-72590938D02*
X139398214Y-72638557D01*
X139398214Y-72638557D02*
X139445833Y-72733795D01*
X139445833Y-72733795D02*
X139445833Y-72829033D01*
X139445833Y-72829033D02*
X139398214Y-72971890D01*
X139398214Y-72971890D02*
X138826786Y-73543319D01*
X138826786Y-73543319D02*
X139445833Y-73543319D01*
X174879167Y-73495700D02*
X175022024Y-73543319D01*
X175022024Y-73543319D02*
X175260119Y-73543319D01*
X175260119Y-73543319D02*
X175355357Y-73495700D01*
X175355357Y-73495700D02*
X175402976Y-73448080D01*
X175402976Y-73448080D02*
X175450595Y-73352842D01*
X175450595Y-73352842D02*
X175450595Y-73257604D01*
X175450595Y-73257604D02*
X175402976Y-73162366D01*
X175402976Y-73162366D02*
X175355357Y-73114747D01*
X175355357Y-73114747D02*
X175260119Y-73067128D01*
X175260119Y-73067128D02*
X175069643Y-73019509D01*
X175069643Y-73019509D02*
X174974405Y-72971890D01*
X174974405Y-72971890D02*
X174926786Y-72924271D01*
X174926786Y-72924271D02*
X174879167Y-72829033D01*
X174879167Y-72829033D02*
X174879167Y-72733795D01*
X174879167Y-72733795D02*
X174926786Y-72638557D01*
X174926786Y-72638557D02*
X174974405Y-72590938D01*
X174974405Y-72590938D02*
X175069643Y-72543319D01*
X175069643Y-72543319D02*
X175307738Y-72543319D01*
X175307738Y-72543319D02*
X175450595Y-72590938D01*
X175783929Y-72543319D02*
X176022024Y-73543319D01*
X176022024Y-73543319D02*
X176212500Y-72829033D01*
X176212500Y-72829033D02*
X176402976Y-73543319D01*
X176402976Y-73543319D02*
X176641072Y-72543319D01*
X177164881Y-72971890D02*
X177069643Y-72924271D01*
X177069643Y-72924271D02*
X177022024Y-72876652D01*
X177022024Y-72876652D02*
X176974405Y-72781414D01*
X176974405Y-72781414D02*
X176974405Y-72733795D01*
X176974405Y-72733795D02*
X177022024Y-72638557D01*
X177022024Y-72638557D02*
X177069643Y-72590938D01*
X177069643Y-72590938D02*
X177164881Y-72543319D01*
X177164881Y-72543319D02*
X177355357Y-72543319D01*
X177355357Y-72543319D02*
X177450595Y-72590938D01*
X177450595Y-72590938D02*
X177498214Y-72638557D01*
X177498214Y-72638557D02*
X177545833Y-72733795D01*
X177545833Y-72733795D02*
X177545833Y-72781414D01*
X177545833Y-72781414D02*
X177498214Y-72876652D01*
X177498214Y-72876652D02*
X177450595Y-72924271D01*
X177450595Y-72924271D02*
X177355357Y-72971890D01*
X177355357Y-72971890D02*
X177164881Y-72971890D01*
X177164881Y-72971890D02*
X177069643Y-73019509D01*
X177069643Y-73019509D02*
X177022024Y-73067128D01*
X177022024Y-73067128D02*
X176974405Y-73162366D01*
X176974405Y-73162366D02*
X176974405Y-73352842D01*
X176974405Y-73352842D02*
X177022024Y-73448080D01*
X177022024Y-73448080D02*
X177069643Y-73495700D01*
X177069643Y-73495700D02*
X177164881Y-73543319D01*
X177164881Y-73543319D02*
X177355357Y-73543319D01*
X177355357Y-73543319D02*
X177450595Y-73495700D01*
X177450595Y-73495700D02*
X177498214Y-73448080D01*
X177498214Y-73448080D02*
X177545833Y-73352842D01*
X177545833Y-73352842D02*
X177545833Y-73162366D01*
X177545833Y-73162366D02*
X177498214Y-73067128D01*
X177498214Y-73067128D02*
X177450595Y-73019509D01*
X177450595Y-73019509D02*
X177355357Y-72971890D01*
X136779167Y-54445700D02*
X136922024Y-54493319D01*
X136922024Y-54493319D02*
X137160119Y-54493319D01*
X137160119Y-54493319D02*
X137255357Y-54445700D01*
X137255357Y-54445700D02*
X137302976Y-54398080D01*
X137302976Y-54398080D02*
X137350595Y-54302842D01*
X137350595Y-54302842D02*
X137350595Y-54207604D01*
X137350595Y-54207604D02*
X137302976Y-54112366D01*
X137302976Y-54112366D02*
X137255357Y-54064747D01*
X137255357Y-54064747D02*
X137160119Y-54017128D01*
X137160119Y-54017128D02*
X136969643Y-53969509D01*
X136969643Y-53969509D02*
X136874405Y-53921890D01*
X136874405Y-53921890D02*
X136826786Y-53874271D01*
X136826786Y-53874271D02*
X136779167Y-53779033D01*
X136779167Y-53779033D02*
X136779167Y-53683795D01*
X136779167Y-53683795D02*
X136826786Y-53588557D01*
X136826786Y-53588557D02*
X136874405Y-53540938D01*
X136874405Y-53540938D02*
X136969643Y-53493319D01*
X136969643Y-53493319D02*
X137207738Y-53493319D01*
X137207738Y-53493319D02*
X137350595Y-53540938D01*
X137683929Y-53493319D02*
X137922024Y-54493319D01*
X137922024Y-54493319D02*
X138112500Y-53779033D01*
X138112500Y-53779033D02*
X138302976Y-54493319D01*
X138302976Y-54493319D02*
X138541072Y-53493319D01*
X139445833Y-54493319D02*
X138874405Y-54493319D01*
X139160119Y-54493319D02*
X139160119Y-53493319D01*
X139160119Y-53493319D02*
X139064881Y-53636176D01*
X139064881Y-53636176D02*
X138969643Y-53731414D01*
X138969643Y-53731414D02*
X138874405Y-53779033D01*
X155829167Y-54445700D02*
X155972024Y-54493319D01*
X155972024Y-54493319D02*
X156210119Y-54493319D01*
X156210119Y-54493319D02*
X156305357Y-54445700D01*
X156305357Y-54445700D02*
X156352976Y-54398080D01*
X156352976Y-54398080D02*
X156400595Y-54302842D01*
X156400595Y-54302842D02*
X156400595Y-54207604D01*
X156400595Y-54207604D02*
X156352976Y-54112366D01*
X156352976Y-54112366D02*
X156305357Y-54064747D01*
X156305357Y-54064747D02*
X156210119Y-54017128D01*
X156210119Y-54017128D02*
X156019643Y-53969509D01*
X156019643Y-53969509D02*
X155924405Y-53921890D01*
X155924405Y-53921890D02*
X155876786Y-53874271D01*
X155876786Y-53874271D02*
X155829167Y-53779033D01*
X155829167Y-53779033D02*
X155829167Y-53683795D01*
X155829167Y-53683795D02*
X155876786Y-53588557D01*
X155876786Y-53588557D02*
X155924405Y-53540938D01*
X155924405Y-53540938D02*
X156019643Y-53493319D01*
X156019643Y-53493319D02*
X156257738Y-53493319D01*
X156257738Y-53493319D02*
X156400595Y-53540938D01*
X156733929Y-53493319D02*
X156972024Y-54493319D01*
X156972024Y-54493319D02*
X157162500Y-53779033D01*
X157162500Y-53779033D02*
X157352976Y-54493319D01*
X157352976Y-54493319D02*
X157591072Y-53493319D01*
X158448214Y-53493319D02*
X157972024Y-53493319D01*
X157972024Y-53493319D02*
X157924405Y-53969509D01*
X157924405Y-53969509D02*
X157972024Y-53921890D01*
X157972024Y-53921890D02*
X158067262Y-53874271D01*
X158067262Y-53874271D02*
X158305357Y-53874271D01*
X158305357Y-53874271D02*
X158400595Y-53921890D01*
X158400595Y-53921890D02*
X158448214Y-53969509D01*
X158448214Y-53969509D02*
X158495833Y-54064747D01*
X158495833Y-54064747D02*
X158495833Y-54302842D01*
X158495833Y-54302842D02*
X158448214Y-54398080D01*
X158448214Y-54398080D02*
X158400595Y-54445700D01*
X158400595Y-54445700D02*
X158305357Y-54493319D01*
X158305357Y-54493319D02*
X158067262Y-54493319D01*
X158067262Y-54493319D02*
X157972024Y-54445700D01*
X157972024Y-54445700D02*
X157924405Y-54398080D01*
X154261905Y-35704819D02*
X154261905Y-34704819D01*
X154261905Y-34704819D02*
X154500000Y-34704819D01*
X154500000Y-34704819D02*
X154642857Y-34752438D01*
X154642857Y-34752438D02*
X154738095Y-34847676D01*
X154738095Y-34847676D02*
X154785714Y-34942914D01*
X154785714Y-34942914D02*
X154833333Y-35133390D01*
X154833333Y-35133390D02*
X154833333Y-35276247D01*
X154833333Y-35276247D02*
X154785714Y-35466723D01*
X154785714Y-35466723D02*
X154738095Y-35561961D01*
X154738095Y-35561961D02*
X154642857Y-35657200D01*
X154642857Y-35657200D02*
X154500000Y-35704819D01*
X154500000Y-35704819D02*
X154261905Y-35704819D01*
X155785714Y-35704819D02*
X155214286Y-35704819D01*
X155500000Y-35704819D02*
X155500000Y-34704819D01*
X155500000Y-34704819D02*
X155404762Y-34847676D01*
X155404762Y-34847676D02*
X155309524Y-34942914D01*
X155309524Y-34942914D02*
X155214286Y-34990533D01*
X152028571Y-37487295D02*
X151571428Y-37487295D01*
X151800000Y-37487295D02*
X151800000Y-36687295D01*
X151800000Y-36687295D02*
X151723809Y-36801580D01*
X151723809Y-36801580D02*
X151647619Y-36877771D01*
X151647619Y-36877771D02*
X151571428Y-36915866D01*
X174879167Y-54445700D02*
X175022024Y-54493319D01*
X175022024Y-54493319D02*
X175260119Y-54493319D01*
X175260119Y-54493319D02*
X175355357Y-54445700D01*
X175355357Y-54445700D02*
X175402976Y-54398080D01*
X175402976Y-54398080D02*
X175450595Y-54302842D01*
X175450595Y-54302842D02*
X175450595Y-54207604D01*
X175450595Y-54207604D02*
X175402976Y-54112366D01*
X175402976Y-54112366D02*
X175355357Y-54064747D01*
X175355357Y-54064747D02*
X175260119Y-54017128D01*
X175260119Y-54017128D02*
X175069643Y-53969509D01*
X175069643Y-53969509D02*
X174974405Y-53921890D01*
X174974405Y-53921890D02*
X174926786Y-53874271D01*
X174926786Y-53874271D02*
X174879167Y-53779033D01*
X174879167Y-53779033D02*
X174879167Y-53683795D01*
X174879167Y-53683795D02*
X174926786Y-53588557D01*
X174926786Y-53588557D02*
X174974405Y-53540938D01*
X174974405Y-53540938D02*
X175069643Y-53493319D01*
X175069643Y-53493319D02*
X175307738Y-53493319D01*
X175307738Y-53493319D02*
X175450595Y-53540938D01*
X175783929Y-53493319D02*
X176022024Y-54493319D01*
X176022024Y-54493319D02*
X176212500Y-53779033D01*
X176212500Y-53779033D02*
X176402976Y-54493319D01*
X176402976Y-54493319D02*
X176641072Y-53493319D01*
X176926786Y-53493319D02*
X177593452Y-53493319D01*
X177593452Y-53493319D02*
X177164881Y-54493319D01*
D11*
X180746520Y-29716190D02*
X180232473Y-29716190D01*
X180232473Y-29716190D02*
X180171997Y-29746428D01*
X180171997Y-29746428D02*
X180141759Y-29776666D01*
X180141759Y-29776666D02*
X180111520Y-29837142D01*
X180111520Y-29837142D02*
X180111520Y-29958095D01*
X180111520Y-29958095D02*
X180141759Y-30018571D01*
X180141759Y-30018571D02*
X180171997Y-30048809D01*
X180171997Y-30048809D02*
X180232473Y-30079047D01*
X180232473Y-30079047D02*
X180746520Y-30079047D01*
X180111520Y-30714047D02*
X180111520Y-30351190D01*
X180111520Y-30532618D02*
X180746520Y-30532618D01*
X180746520Y-30532618D02*
X180655806Y-30472142D01*
X180655806Y-30472142D02*
X180595330Y-30411666D01*
X180595330Y-30411666D02*
X180565092Y-30351190D01*
D12*
%TO.C,SW6*%
X150177500Y-73977500D02*
X164147500Y-73977500D01*
X150177500Y-87947500D02*
X150177500Y-73977500D01*
X164147500Y-73977500D02*
X164147500Y-87947500D01*
X164147500Y-87947500D02*
X150177500Y-87947500D01*
%TO.C,D2*%
X151981250Y-43243750D02*
X151981250Y-47243750D01*
X151981250Y-43243750D02*
X157581250Y-43243750D01*
X151981250Y-47243750D02*
X156981250Y-47243750D01*
X157581250Y-46643750D02*
X156981250Y-47243750D01*
X157581250Y-46643750D02*
X157581250Y-43243750D01*
%TO.C,SW2*%
X131127500Y-73977500D02*
X145097500Y-73977500D01*
X131127500Y-87947500D02*
X131127500Y-73977500D01*
X145097500Y-73977500D02*
X145097500Y-87947500D01*
X145097500Y-87947500D02*
X131127500Y-87947500D01*
%TO.C,SW8*%
X169227500Y-73977500D02*
X183197500Y-73977500D01*
X169227500Y-87947500D02*
X169227500Y-73977500D01*
X183197500Y-73977500D02*
X183197500Y-87947500D01*
X183197500Y-87947500D02*
X169227500Y-87947500D01*
%TO.C,SW1*%
X131127500Y-54927500D02*
X145097500Y-54927500D01*
X131127500Y-68897500D02*
X131127500Y-54927500D01*
X145097500Y-54927500D02*
X145097500Y-68897500D01*
X145097500Y-68897500D02*
X131127500Y-68897500D01*
%TO.C,SW5*%
X150177500Y-54927500D02*
X164147500Y-54927500D01*
X150177500Y-68897500D02*
X150177500Y-54927500D01*
X164147500Y-54927500D02*
X164147500Y-68897500D01*
X164147500Y-68897500D02*
X150177500Y-68897500D01*
%TO.C,D1*%
X152200000Y-36000000D02*
X152200000Y-40000000D01*
X152200000Y-36000000D02*
X157800000Y-36000000D01*
X152200000Y-40000000D02*
X157200000Y-40000000D01*
X157800000Y-39400000D02*
X157200000Y-40000000D01*
X157800000Y-39400000D02*
X157800000Y-36000000D01*
%TO.C,SW7*%
X169227500Y-54927500D02*
X183197500Y-54927500D01*
X169227500Y-68897500D02*
X169227500Y-54927500D01*
X183197500Y-54927500D02*
X183197500Y-68897500D01*
X183197500Y-68897500D02*
X169227500Y-68897500D01*
D13*
%TO.C,U1*%
X164766000Y-33895000D02*
X164766000Y-47865000D01*
X166671000Y-31990000D02*
X183816000Y-31990000D01*
X166671000Y-49770000D02*
X183816000Y-49770000D01*
X185721000Y-36385000D02*
X186631272Y-36388728D01*
D14*
X185721000Y-47865000D02*
X185721000Y-33895000D01*
D13*
X185721000Y-47865000D02*
X185721000Y-33895000D01*
X186631000Y-45384000D02*
X185721000Y-45384000D01*
X187131000Y-36888728D02*
X187131000Y-44884000D01*
X164766000Y-33895000D02*
G75*
G02*
X166671000Y-31990000I1905001J-1D01*
G01*
X166671000Y-49770000D02*
G75*
G02*
X164766000Y-47865000I0J1905000D01*
G01*
X183816000Y-31990000D02*
G75*
G02*
X185721000Y-33895000I-1J-1905001D01*
G01*
X185721000Y-47865000D02*
G75*
G02*
X183816000Y-49770000I-1905000J0D01*
G01*
X186631272Y-36388728D02*
G75*
G02*
X187130999Y-36888728I-291J-500018D01*
G01*
X187131000Y-44884000D02*
G75*
G02*
X186631000Y-45384000I-500000J0D01*
G01*
D15*
X184852000Y-33073000D02*
G75*
G02*
X184348000Y-33073000I-252000J0D01*
G01*
X184348000Y-33073000D02*
G75*
G02*
X184852000Y-33073000I252000J0D01*
G01*
X185732000Y-31930000D02*
G75*
G02*
X185228000Y-31930000I-252000J0D01*
G01*
X185228000Y-31930000D02*
G75*
G02*
X185732000Y-31930000I252000J0D01*
G01*
%TD*%
M02*
