%TF.GenerationSoftware,KiCad,Pcbnew,9.0.6*%
%TF.CreationDate,2025-12-04T00:12:17+02:00*%
%TF.ProjectId,Prototype,50726f74-6f74-4797-9065-2e6b69636164,rev?*%
%TF.SameCoordinates,Original*%
%TF.FileFunction,Copper,L1,Top*%
%TF.FilePolarity,Positive*%
%FSLAX46Y46*%
G04 Gerber Fmt 4.6, Leading zero omitted, Abs format (unit mm)*
G04 Created by KiCad (PCBNEW 9.0.6) date 2025-12-04 00:12:17*
%MOMM*%
%LPD*%
G01*
G04 APERTURE LIST*
G04 Aperture macros list*
%AMRoundRect*
0 Rectangle with rounded corners*
0 $1 Rounding radius*
0 $2 $3 $4 $5 $6 $7 $8 $9 X,Y pos of 4 corners*
0 Add a 4 corners polygon primitive as box body*
4,1,4,$2,$3,$4,$5,$6,$7,$8,$9,$2,$3,0*
0 Add four circle primitives for the rounded corners*
1,1,$1+$1,$2,$3*
1,1,$1+$1,$4,$5*
1,1,$1+$1,$6,$7*
1,1,$1+$1,$8,$9*
0 Add four rect primitives between the rounded corners*
20,1,$1+$1,$2,$3,$4,$5,0*
20,1,$1+$1,$4,$5,$6,$7,0*
20,1,$1+$1,$6,$7,$8,$9,0*
20,1,$1+$1,$8,$9,$2,$3,0*%
G04 Aperture macros list end*
%TA.AperFunction,ComponentPad*%
%ADD10C,2.200000*%
%TD*%
%TA.AperFunction,SMDPad,CuDef*%
%ADD11R,1.600000X0.850000*%
%TD*%
%TA.AperFunction,SMDPad,CuDef*%
%ADD12RoundRect,0.152400X0.609600X-1.063600X0.609600X1.063600X-0.609600X1.063600X-0.609600X-1.063600X0*%
%TD*%
%TA.AperFunction,ComponentPad*%
%ADD13C,1.524000*%
%TD*%
%TA.AperFunction,SMDPad,CuDef*%
%ADD14RoundRect,0.152400X-0.609600X1.063600X-0.609600X-1.063600X0.609600X-1.063600X0.609600X1.063600X0*%
%TD*%
%TA.AperFunction,Conductor*%
%ADD15C,0.200000*%
%TD*%
G04 APERTURE END LIST*
D10*
%TO.P,SW6,1,1*%
%TO.N,GND*%
X159702500Y-75882500D03*
%TO.P,SW6,2,2*%
%TO.N,Net-(U1-GPIO2{slash}SCK)*%
X153352500Y-78422500D03*
%TD*%
D11*
%TO.P,D2,1,DOUT*%
%TO.N,Net-(D1-DIN)*%
X153031250Y-44368750D03*
%TO.P,D2,2,VSS*%
%TO.N,GND*%
X153031250Y-46118750D03*
%TO.P,D2,3,DIN*%
%TO.N,Net-(D2-DIN)*%
X156531250Y-46118750D03*
%TO.P,D2,4,VDD*%
%TO.N,+5V*%
X156531250Y-44368750D03*
%TD*%
D10*
%TO.P,SW2,1,1*%
%TO.N,GND*%
X140652500Y-75882500D03*
%TO.P,SW2,2,2*%
%TO.N,Net-(U1-GPIO0{slash}TX)*%
X134302500Y-78422500D03*
%TD*%
%TO.P,SW8,1,1*%
%TO.N,GND*%
X178752500Y-75882500D03*
%TO.P,SW8,2,2*%
%TO.N,Net-(U1-GPIO3{slash}MOSI)*%
X172402500Y-78422500D03*
%TD*%
%TO.P,SW1,1,1*%
%TO.N,GND*%
X140652500Y-56832500D03*
%TO.P,SW1,2,2*%
%TO.N,Net-(U1-GPIO7{slash}SCL)*%
X134302500Y-59372500D03*
%TD*%
%TO.P,SW5,1,1*%
%TO.N,GND*%
X159702500Y-56832500D03*
%TO.P,SW5,2,2*%
%TO.N,Net-(U1-GPIO1{slash}RX)*%
X153352500Y-59372500D03*
%TD*%
D11*
%TO.P,D1,1,DOUT*%
%TO.N,unconnected-(D1-DOUT-Pad1)*%
X153250000Y-37125000D03*
%TO.P,D1,2,VSS*%
%TO.N,GND*%
X153250000Y-38875000D03*
%TO.P,D1,3,DIN*%
%TO.N,Net-(D1-DIN)*%
X156750000Y-38875000D03*
%TO.P,D1,4,VDD*%
%TO.N,+5V*%
X156750000Y-37125000D03*
%TD*%
D10*
%TO.P,SW7,1,1*%
%TO.N,GND*%
X178752500Y-56832500D03*
%TO.P,SW7,2,2*%
%TO.N,Net-(U1-GPIO4{slash}MISO)*%
X172402500Y-59372500D03*
%TD*%
D12*
%TO.P,U1,1,GPIO26/ADC0/A0*%
%TO.N,unconnected-(U1-GPIO26{slash}ADC0{slash}A0-Pad1)*%
X182800000Y-32425000D03*
D13*
X182800000Y-33260000D03*
D12*
%TO.P,U1,2,GPIO27/ADC1/A1*%
%TO.N,unconnected-(U1-GPIO27{slash}ADC1{slash}A1-Pad2)*%
X180260000Y-32425000D03*
D13*
X180260000Y-33260000D03*
D12*
%TO.P,U1,3,GPIO28/ADC2/A2*%
%TO.N,unconnected-(U1-GPIO28{slash}ADC2{slash}A2-Pad3)*%
X177720000Y-32425000D03*
D13*
X177720000Y-33260000D03*
D12*
%TO.P,U1,4,GPIO29/ADC3/A3*%
%TO.N,unconnected-(U1-GPIO29{slash}ADC3{slash}A3-Pad4)*%
X175180000Y-32425000D03*
D13*
X175180000Y-33260000D03*
D12*
%TO.P,U1,5,GPIO6/SDA*%
%TO.N,Net-(D2-DIN)*%
X172640000Y-32425000D03*
D13*
X172640000Y-33260000D03*
D12*
%TO.P,U1,6,GPIO7/SCL*%
%TO.N,Net-(U1-GPIO7{slash}SCL)*%
X170100000Y-32425000D03*
D13*
X170100000Y-33260000D03*
D12*
%TO.P,U1,7,GPIO0/TX*%
%TO.N,Net-(U1-GPIO0{slash}TX)*%
X167560000Y-32425000D03*
D13*
X167560000Y-33260000D03*
%TO.P,U1,8,GPIO1/RX*%
%TO.N,Net-(U1-GPIO1{slash}RX)*%
X167560000Y-48500000D03*
D14*
X167560000Y-49335000D03*
D13*
%TO.P,U1,9,GPIO2/SCK*%
%TO.N,Net-(U1-GPIO2{slash}SCK)*%
X170100000Y-48500000D03*
D14*
X170100000Y-49335000D03*
D13*
%TO.P,U1,10,GPIO4/MISO*%
%TO.N,Net-(U1-GPIO4{slash}MISO)*%
X172640000Y-48500000D03*
D14*
X172640000Y-49335000D03*
D13*
%TO.P,U1,11,GPIO3/MOSI*%
%TO.N,Net-(U1-GPIO3{slash}MOSI)*%
X175180000Y-48500000D03*
D14*
X175180000Y-49335000D03*
D13*
%TO.P,U1,12,3V3*%
%TO.N,unconnected-(U1-3V3-Pad12)*%
X177720000Y-48500000D03*
D14*
X177720000Y-49335000D03*
D13*
%TO.P,U1,13,GND*%
%TO.N,unconnected-(U1-GND-Pad13)*%
X180260000Y-48500000D03*
D14*
X180260000Y-49335000D03*
D13*
%TO.P,U1,14,VBUS*%
%TO.N,unconnected-(U1-VBUS-Pad14)*%
X182800000Y-48500000D03*
D14*
X182800000Y-49335000D03*
%TD*%
D15*
%TO.N,Net-(D1-DIN)*%
X153031250Y-44368750D02*
X153031250Y-42593750D01*
X153031250Y-42593750D02*
X156750000Y-38875000D01*
%TO.N,GND*%
X178752500Y-75882500D02*
X178752500Y-56832500D01*
X178752500Y-56832500D02*
X159702500Y-56832500D01*
X153250000Y-38875000D02*
X151930250Y-40194750D01*
X140652500Y-75882500D02*
X140652500Y-56832500D01*
X159702500Y-75882500D02*
X159702500Y-56832500D01*
X159702500Y-56832500D02*
X159702500Y-52790000D01*
X159702500Y-52790000D02*
X153031250Y-46118750D01*
X151930250Y-40194750D02*
X151930250Y-45017750D01*
X140652500Y-56832500D02*
X159702500Y-56832500D01*
X151930250Y-45017750D02*
X153031250Y-46118750D01*
%TO.N,+5V*%
X156531250Y-44368750D02*
X157851000Y-43049000D01*
X157851000Y-38226000D02*
X156750000Y-37125000D01*
X157851000Y-43049000D02*
X157851000Y-38226000D01*
%TO.N,Net-(D2-DIN)*%
X156531250Y-46118750D02*
X159781250Y-46118750D01*
X159781250Y-46118750D02*
X172640000Y-33260000D01*
%TD*%
M02*
