%TF.GenerationSoftware,KiCad,Pcbnew,9.0.6*%
%TF.CreationDate,2025-12-04T00:12:17+02:00*%
%TF.ProjectId,Prototype,50726f74-6f74-4797-9065-2e6b69636164,rev?*%
%TF.SameCoordinates,Original*%
%TF.FileFunction,Soldermask,Bot*%
%TF.FilePolarity,Negative*%
%FSLAX46Y46*%
G04 Gerber Fmt 4.6, Leading zero omitted, Abs format (unit mm)*
G04 Created by KiCad (PCBNEW 9.0.6) date 2025-12-04 00:12:17*
%MOMM*%
%LPD*%
G01*
G04 APERTURE LIST*
%ADD10C,1.700000*%
%ADD11C,4.000000*%
%ADD12C,2.200000*%
%ADD13C,1.524000*%
G04 APERTURE END LIST*
D10*
%TO.C,SW6*%
X152082500Y-80962500D03*
D11*
X157162500Y-80962500D03*
D10*
X162242500Y-80962500D03*
D12*
X159702500Y-75882500D03*
X153352500Y-78422500D03*
%TD*%
D10*
%TO.C,SW2*%
X133032500Y-80962500D03*
D11*
X138112500Y-80962500D03*
D10*
X143192500Y-80962500D03*
D12*
X140652500Y-75882500D03*
X134302500Y-78422500D03*
%TD*%
D10*
%TO.C,SW8*%
X171132500Y-80962500D03*
D11*
X176212500Y-80962500D03*
D10*
X181292500Y-80962500D03*
D12*
X178752500Y-75882500D03*
X172402500Y-78422500D03*
%TD*%
D10*
%TO.C,SW1*%
X133032500Y-61912500D03*
D11*
X138112500Y-61912500D03*
D10*
X143192500Y-61912500D03*
D12*
X140652500Y-56832500D03*
X134302500Y-59372500D03*
%TD*%
D10*
%TO.C,SW5*%
X152082500Y-61912500D03*
D11*
X157162500Y-61912500D03*
D10*
X162242500Y-61912500D03*
D12*
X159702500Y-56832500D03*
X153352500Y-59372500D03*
%TD*%
D10*
%TO.C,SW7*%
X171132500Y-61912500D03*
D11*
X176212500Y-61912500D03*
D10*
X181292500Y-61912500D03*
D12*
X178752500Y-56832500D03*
X172402500Y-59372500D03*
%TD*%
D13*
%TO.C,U1*%
X182800000Y-33260000D03*
X180260000Y-33260000D03*
X177720000Y-33260000D03*
X175180000Y-33260000D03*
X172640000Y-33260000D03*
X170100000Y-33260000D03*
X167560000Y-33260000D03*
X167560000Y-48500000D03*
X170100000Y-48500000D03*
X172640000Y-48500000D03*
X175180000Y-48500000D03*
X177720000Y-48500000D03*
X180260000Y-48500000D03*
X182800000Y-48500000D03*
%TD*%
M02*
