%TF.GenerationSoftware,KiCad,Pcbnew,9.0.6*%
%TF.CreationDate,2025-12-04T00:12:17+02:00*%
%TF.ProjectId,Prototype,50726f74-6f74-4797-9065-2e6b69636164,rev?*%
%TF.SameCoordinates,Original*%
%TF.FileFunction,Copper,L2,Bot*%
%TF.FilePolarity,Positive*%
%FSLAX46Y46*%
G04 Gerber Fmt 4.6, Leading zero omitted, Abs format (unit mm)*
G04 Created by KiCad (PCBNEW 9.0.6) date 2025-12-04 00:12:17*
%MOMM*%
%LPD*%
G01*
G04 APERTURE LIST*
%TA.AperFunction,ComponentPad*%
%ADD10C,2.200000*%
%TD*%
%TA.AperFunction,ComponentPad*%
%ADD11C,1.524000*%
%TD*%
%TA.AperFunction,Conductor*%
%ADD12C,0.200000*%
%TD*%
G04 APERTURE END LIST*
D10*
%TO.P,SW6,1,1*%
%TO.N,GND*%
X159702500Y-75882500D03*
%TO.P,SW6,2,2*%
%TO.N,Net-(U1-GPIO2{slash}SCK)*%
X153352500Y-78422500D03*
%TD*%
%TO.P,SW2,1,1*%
%TO.N,GND*%
X140652500Y-75882500D03*
%TO.P,SW2,2,2*%
%TO.N,Net-(U1-GPIO0{slash}TX)*%
X134302500Y-78422500D03*
%TD*%
%TO.P,SW8,1,1*%
%TO.N,GND*%
X178752500Y-75882500D03*
%TO.P,SW8,2,2*%
%TO.N,Net-(U1-GPIO3{slash}MOSI)*%
X172402500Y-78422500D03*
%TD*%
%TO.P,SW1,1,1*%
%TO.N,GND*%
X140652500Y-56832500D03*
%TO.P,SW1,2,2*%
%TO.N,Net-(U1-GPIO7{slash}SCL)*%
X134302500Y-59372500D03*
%TD*%
%TO.P,SW5,1,1*%
%TO.N,GND*%
X159702500Y-56832500D03*
%TO.P,SW5,2,2*%
%TO.N,Net-(U1-GPIO1{slash}RX)*%
X153352500Y-59372500D03*
%TD*%
%TO.P,SW7,1,1*%
%TO.N,GND*%
X178752500Y-56832500D03*
%TO.P,SW7,2,2*%
%TO.N,Net-(U1-GPIO4{slash}MISO)*%
X172402500Y-59372500D03*
%TD*%
D11*
%TO.P,U1,1,GPIO26/ADC0/A0*%
%TO.N,unconnected-(U1-GPIO26{slash}ADC0{slash}A0-Pad1)*%
X182800000Y-33260000D03*
%TO.P,U1,2,GPIO27/ADC1/A1*%
%TO.N,unconnected-(U1-GPIO27{slash}ADC1{slash}A1-Pad2)*%
X180260000Y-33260000D03*
%TO.P,U1,3,GPIO28/ADC2/A2*%
%TO.N,unconnected-(U1-GPIO28{slash}ADC2{slash}A2-Pad3)*%
X177720000Y-33260000D03*
%TO.P,U1,4,GPIO29/ADC3/A3*%
%TO.N,unconnected-(U1-GPIO29{slash}ADC3{slash}A3-Pad4)*%
X175180000Y-33260000D03*
%TO.P,U1,5,GPIO6/SDA*%
%TO.N,Net-(D2-DIN)*%
X172640000Y-33260000D03*
%TO.P,U1,6,GPIO7/SCL*%
%TO.N,Net-(U1-GPIO7{slash}SCL)*%
X170100000Y-33260000D03*
%TO.P,U1,7,GPIO0/TX*%
%TO.N,Net-(U1-GPIO0{slash}TX)*%
X167560000Y-33260000D03*
%TO.P,U1,8,GPIO1/RX*%
%TO.N,Net-(U1-GPIO1{slash}RX)*%
X167560000Y-48500000D03*
%TO.P,U1,9,GPIO2/SCK*%
%TO.N,Net-(U1-GPIO2{slash}SCK)*%
X170100000Y-48500000D03*
%TO.P,U1,10,GPIO4/MISO*%
%TO.N,Net-(U1-GPIO4{slash}MISO)*%
X172640000Y-48500000D03*
%TO.P,U1,11,GPIO3/MOSI*%
%TO.N,Net-(U1-GPIO3{slash}MOSI)*%
X175180000Y-48500000D03*
%TO.P,U1,12,3V3*%
%TO.N,unconnected-(U1-3V3-Pad12)*%
X177720000Y-48500000D03*
%TO.P,U1,13,GND*%
%TO.N,unconnected-(U1-GND-Pad13)*%
X180260000Y-48500000D03*
%TO.P,U1,14,VBUS*%
%TO.N,unconnected-(U1-VBUS-Pad14)*%
X182800000Y-48500000D03*
%TD*%
D12*
%TO.N,Net-(U1-GPIO1{slash}RX)*%
X164225000Y-48500000D02*
X167610000Y-48500000D01*
X153352500Y-59372500D02*
X164225000Y-48500000D01*
%TO.N,Net-(U1-GPIO2{slash}SCK)*%
X163443500Y-68331500D02*
X163443500Y-55206500D01*
X153352500Y-78422500D02*
X163443500Y-68331500D01*
X163443500Y-55206500D02*
X170150000Y-48500000D01*
%TO.N,Net-(U1-GPIO4{slash}MISO)*%
X172402500Y-59372500D02*
X172402500Y-48787500D01*
X172402500Y-48787500D02*
X172690000Y-48500000D01*
%TO.N,Net-(U1-GPIO3{slash}MOSI)*%
X173803500Y-77021500D02*
X173803500Y-49926500D01*
X172402500Y-78422500D02*
X173803500Y-77021500D01*
X173803500Y-49926500D02*
X175230000Y-48500000D01*
%TO.N,Net-(U1-GPIO7{slash}SCL)*%
X144037500Y-59372500D02*
X170150000Y-33260000D01*
X134302500Y-59372500D02*
X144037500Y-59372500D01*
%TO.N,Net-(U1-GPIO0{slash}TX)*%
X131831500Y-75951500D02*
X131831500Y-33668500D01*
X134302500Y-78422500D02*
X131831500Y-75951500D01*
X131831500Y-33668500D02*
X132240000Y-33260000D01*
X132240000Y-33260000D02*
X167610000Y-33260000D01*
%TD*%
M02*
